<svg xmlns="http://www.w3.org/2000/svg" viewBox="0 0 640 420" role="img" aria-labelledby="title desc">
  <title id="title">Daun singkong</title>
  <desc id="desc">Daun singkong rebus sebagai sayur pelengkap Nasi Padang.</desc>
  <rect width="640" height="420" fill="#edf3e6"/>
  <rect y="300" width="640" height="120" fill="#287347"/>
  <ellipse cx="320" cy="236" rx="212" ry="124" fill="#fffaf0" stroke="#ccd9cf" stroke-width="8"/>
  <g fill="#2f7a48">
    <ellipse cx="254" cy="207" rx="70" ry="30" transform="rotate(-28 254 207)"/>
    <ellipse cx="315" cy="184" rx="78" ry="32" transform="rotate(8 315 184)"/>
    <ellipse cx="380" cy="210" rx="76" ry="31" transform="rotate(27 380 210)"/>
    <ellipse cx="277" cy="266" rx="76" ry="31" transform="rotate(18 277 266)"/>
    <ellipse cx="374" cy="267" rx="74" ry="30" transform="rotate(-18 374 267)"/>
  </g>
  <g stroke="#a8c45e" stroke-width="6" stroke-linecap="round">
    <path d="M214 226c68-27 139-36 213-28"/>
    <path d="M238 273c65-21 124-21 177-1"/>
  </g>
</svg>
